<svg width="21" height="21" viewBox="0 0 21 21" fill="none" xmlns="http://www.w3.org/2000/svg">
<path id="Instagram" d="M10.6084 1.85824C13.2751 1.85824 13.6084 1.85824 14.6917 1.94157C17.4417 2.0249 18.6917 3.35824 18.7751 6.0249C18.8584 7.10824 18.8584 7.35824 18.8584 10.0249C18.8584 12.6916 18.8584 13.0249 18.7751 14.0249C18.6917 16.6916 17.3584 18.0249 14.6917 18.1082C13.6084 18.1916 13.3584 18.1916 10.6084 18.1916C7.94173 18.1916 7.6084 18.1916 6.6084 18.1082C3.8584 18.0249 2.6084 16.6916 2.52507 14.0249C2.44173 12.9416 2.44173 12.6916 2.44173 10.0249C2.44173 7.35824 2.44173 7.0249 2.52507 6.0249C2.6084 3.35824 3.94173 2.0249 6.6084 1.94157C7.6084 1.85824 7.94173 1.85824 10.6084 1.85824ZM10.6084 0.0249023C7.8584 0.0249023 7.52506 0.0249023 6.52506 0.108236C2.8584 0.274902 0.858398 2.2749 0.691732 5.94157C0.608398 6.94157 0.608398 7.2749 0.608398 10.0249C0.608398 12.7749 0.608398 13.1082 0.691732 14.1082C0.858398 17.7749 2.8584 19.7749 6.52506 19.9416C7.52506 20.0249 7.8584 20.0249 10.6084 20.0249C13.3584 20.0249 13.6917 20.0249 14.6917 19.9416C18.3584 19.7749 20.3584 17.7749 20.5251 14.1082C20.6084 13.1082 20.6084 12.7749 20.6084 10.0249C20.6084 7.2749 20.6084 6.94157 20.5251 5.94157C20.3584 2.2749 18.3584 0.274902 14.6917 0.108236C13.6917 0.0249023 13.3584 0.0249023 10.6084 0.0249023ZM10.6084 4.85824C7.77506 4.85824 5.44173 7.19157 5.44173 10.0249C5.44173 12.8582 7.77506 15.1916 10.6084 15.1916C13.4417 15.1916 15.7751 12.8582 15.7751 10.0249C15.7751 7.19157 13.4417 4.85824 10.6084 4.85824ZM10.6084 13.3582C8.77506 13.3582 7.27506 11.8582 7.27506 10.0249C7.27506 8.19157 8.77506 6.69157 10.6084 6.69157C12.4417 6.69157 13.9417 8.19157 13.9417 10.0249C13.9417 11.8582 12.4417 13.3582 10.6084 13.3582ZM15.9417 3.5249C15.2751 3.5249 14.7751 4.0249 14.7751 4.69157C14.7751 5.35824 15.2751 5.85824 15.9417 5.85824C16.6084 5.85824 17.1084 5.35824 17.1084 4.69157C17.1084 4.0249 16.6084 3.5249 15.9417 3.5249Z" fill="#8794BA"/>
</svg>
