<svg width="25" height="21" viewBox="0 0 25 21" fill="none" xmlns="http://www.w3.org/2000/svg">
<path id="Twitter" d="M7.7392 20.0249C17.0259 20.0249 22.1045 12.331 22.1045 5.65962C22.1045 5.44103 22.1 5.22355 22.0899 5.00692C23.0757 4.29432 23.9327 3.40484 24.6086 2.39276C23.704 2.79468 22.7306 3.06533 21.7093 3.18736C22.7516 2.56237 23.5521 1.57325 23.9296 0.394355C22.9539 0.972885 21.8736 1.39328 20.7238 1.61999C19.8021 0.638698 18.49 0.0249023 17.0382 0.0249023C14.2497 0.0249023 11.9885 2.28612 11.9885 5.07325C11.9885 5.46958 12.033 5.8547 12.1192 6.22443C7.92337 6.01368 4.20253 4.00436 1.71264 0.949654C1.27853 1.69556 1.02859 2.56265 1.02859 3.48712C1.02859 5.23867 1.92004 6.78505 3.27554 7.68993C2.44735 7.66446 1.66926 7.43663 0.988846 7.05822C0.987727 7.07921 0.987727 7.10049 0.987727 7.1226C0.987727 9.56798 2.72835 11.6095 5.03827 12.0721C4.61424 12.1877 4.1681 12.2499 3.7074 12.2499C3.38217 12.2499 3.0659 12.2174 2.7583 12.1589C3.40093 14.1646 5.26498 15.6245 7.47498 15.6656C5.74667 17.02 3.5697 17.8269 1.20436 17.8269C0.797123 17.8269 0.395203 17.8037 0 17.757C2.23435 19.1889 4.88741 20.0249 7.7392 20.0249Z" fill="#8794BA"/>
</svg>
